<svg xmlns="http://www.w3.org/2000/svg" xmlns:xlink="http://www.w3.org/1999/xlink" width="514" zoomAndPan="magnify" viewBox="0 0 385.5 385.500002" height="514" preserveAspectRatio="xMidYMid meet" version="1.0"><defs><clipPath id="520cc40a21"><path d="M 30.800781 0 L 354.378906 0 L 354.378906 385 L 30.800781 385 Z M 30.800781 0 " clip-rule="nonzero"/></clipPath><clipPath id="b75a071a5f"><path d="M 0.800781 0 L 324.191406 0 L 324.191406 385 L 0.800781 385 Z M 0.800781 0 " clip-rule="nonzero"/></clipPath><clipPath id="405c03778b"><rect x="0" width="325" y="0" height="385"/></clipPath></defs><g clip-path="url(#520cc40a21)"><g transform="matrix(1, 0, 0, 1, 30, 0.000000000000011185)"><g clip-path="url(#405c03778b)"><path fill="#f15808" d="M 60.535156 102.09375 L 15.75 102.09375 L 15.75 92.21875 L 60.535156 92.21875 L 60.535156 102.09375 " fill-opacity="1" fill-rule="nonzero"/><path fill="#f15808" d="M 60.535156 113.429688 L 15.75 113.429688 L 15.75 103.554688 L 60.535156 103.554688 L 60.535156 113.429688 " fill-opacity="1" fill-rule="nonzero"/><path fill="#f15808" d="M 60.535156 124.769531 L 15.75 124.769531 L 15.75 114.890625 L 60.535156 114.890625 L 60.535156 124.769531 " fill-opacity="1" fill-rule="nonzero"/><g clip-path="url(#b75a071a5f)"><path fill="#f15808" d="M 101.03125 84.859375 L 91.136719 74.964844 L 81.242188 84.859375 Z M 90.332031 162.28125 L 104.574219 148.035156 L 94.414062 137.875 L 90.332031 137.875 Z M 90.332031 203.074219 L 104.574219 188.832031 L 90.332031 174.589844 Z M 90.332031 243.871094 L 104.574219 229.628906 L 90.332031 215.382812 Z M 90.332031 284.664062 L 104.574219 270.421875 L 90.332031 256.179688 Z M 90.332031 325.460938 L 104.574219 311.21875 L 90.332031 296.976562 Z M 126.140625 332.78125 L 108.746094 315.386719 L 91.351562 332.78125 Z M 127.15625 296.976562 L 112.914062 311.21875 L 127.15625 325.460938 Z M 114.738281 137.875 L 102.75 137.875 L 108.746094 143.867188 Z M 127.15625 162.28125 L 127.15625 137.875 L 123.074219 137.875 L 112.914062 148.035156 Z M 124.972656 168.433594 L 108.746094 152.207031 L 92.515625 168.433594 L 108.746094 184.664062 Z M 127.15625 203.074219 L 127.15625 174.589844 L 112.914062 188.832031 Z M 124.972656 209.230469 L 108.746094 193 L 92.515625 209.230469 L 108.746094 225.457031 Z M 127.15625 243.871094 L 127.15625 215.382812 L 112.914062 229.628906 Z M 124.972656 250.027344 L 108.746094 233.796875 L 92.515625 250.027344 L 108.746094 266.253906 Z M 127.15625 284.664062 L 127.15625 256.179688 L 112.914062 270.421875 Z M 108.746094 274.589844 L 92.515625 290.820312 L 108.746094 307.050781 L 124.972656 290.820312 Z M 135.296875 115.089844 L 127.136719 94.175781 L 100.65625 94.175781 L 100.65625 115.089844 Z M 136.707031 84.859375 L 126.816406 74.964844 L 116.917969 84.859375 Z M 158.324219 70.796875 L 145.304688 57.78125 L 144 57.78125 L 130.984375 70.796875 L 144.652344 84.46875 Z M 172.386719 84.859375 L 162.492188 74.964844 L 152.597656 84.859375 Z M 194 70.796875 L 180.984375 57.78125 L 179.675781 57.78125 L 166.660156 70.796875 L 180.332031 84.46875 Z M 208.0625 84.859375 L 198.171875 74.964844 L 188.273438 84.859375 Z M 229.679688 70.796875 L 216.660156 57.78125 L 215.355469 57.78125 L 202.335938 70.796875 L 216.007812 84.46875 Z M 243.742188 84.859375 L 233.847656 74.964844 L 223.953125 84.859375 Z M 251.6875 84.46875 L 265.355469 70.796875 L 252.339844 57.78125 L 251.03125 57.78125 L 238.015625 70.796875 Z M 248.085938 155.867188 C 248.953125 154.621094 250.390625 153.804688 252.023438 153.804688 C 253.652344 153.804688 255.089844 154.621094 255.957031 155.867188 L 255.957031 100.648438 C 255.089844 101.894531 253.652344 102.710938 252.023438 102.710938 C 250.390625 102.710938 248.953125 101.894531 248.085938 100.648438 Z M 256.816406 158.386719 L 269.769531 158.386719 L 269.769531 98.132812 L 256.816406 98.132812 Z M 279.417969 84.859375 L 269.523438 74.964844 L 259.632812 84.859375 Z M 270.632812 155.867188 C 271.496094 154.621094 272.933594 153.804688 274.566406 153.804688 C 276.199219 153.804688 277.636719 154.621094 278.503906 155.867188 L 278.503906 100.648438 C 277.636719 101.894531 276.199219 102.710938 274.566406 102.710938 C 272.933594 102.710938 271.496094 101.894531 270.632812 100.648438 Z M 287.363281 84.46875 L 301.035156 70.796875 L 288.019531 57.78125 L 286.710938 57.78125 L 273.691406 70.796875 Z M 315.09375 84.859375 L 305.199219 74.964844 L 295.308594 84.859375 Z M 260.675781 57.78125 L 269.523438 66.628906 L 278.375 57.78125 Z M 225 57.78125 L 233.847656 66.628906 L 242.695312 57.78125 Z M 189.320312 57.78125 L 198.171875 66.628906 L 207.019531 57.78125 Z M 153.644531 57.78125 L 162.492188 66.628906 L 171.339844 57.78125 Z M 109.820312 1.785156 L 109.820312 39.214844 L 136.992188 39.214844 L 136.992188 51.886719 L 281.527344 51.886719 Z M 126.816406 66.628906 L 135.664062 57.78125 L 117.964844 57.78125 Z M 109.628906 57.78125 L 108.320312 57.78125 L 95.304688 70.796875 L 108.976562 84.46875 L 122.644531 70.796875 Z M 107.671875 2.457031 L 39.875 51.886719 L 80.496094 51.886719 L 80.496094 39.214844 L 107.671875 39.214844 Z M 36.964844 57.78125 L 23.949219 70.796875 L 37.621094 84.46875 L 51.289062 70.796875 L 38.273438 57.78125 Z M 9.890625 84.859375 L 29.675781 84.859375 L 19.78125 74.964844 Z M 65.355469 84.859375 L 55.460938 74.964844 L 45.566406 84.859375 Z M 64.308594 57.78125 L 46.613281 57.78125 L 55.460938 66.628906 Z M 91.136719 66.628906 L 99.984375 57.78125 L 82.289062 57.78125 Z M 73.953125 57.78125 L 72.644531 57.78125 L 59.628906 70.796875 L 73.296875 84.46875 L 86.96875 70.796875 Z M 0.871094 90.75 L 0.871094 85.539062 L 34.523438 51.886719 L 37.6875 51.886719 L 107.671875 0.859375 L 107.671875 0 L 109.820312 0 L 109.820312 0.445312 L 286.125 51.886719 L 290.460938 51.886719 L 296.351562 57.78125 L 305.199219 66.628906 L 309.371094 70.796875 L 324.113281 85.539062 L 324.113281 90.75 L 280.6875 90.75 L 280.6875 98.132812 L 279.363281 98.132812 L 279.363281 158.386719 L 280.683594 158.386719 L 280.683594 167.152344 C 275.753906 172.085938 272.988281 174.851562 268.054688 179.785156 L 265.664062 179.785156 L 265.664062 182.214844 C 265.664062 182.53125 265.851562 182.816406 266.132812 182.964844 L 266.136719 182.964844 C 266.570312 183.183594 266.972656 183.453125 267.367188 183.742188 C 267.753906 184.035156 268.113281 184.371094 268.453125 184.722656 C 269.121094 185.445312 269.683594 186.277344 270.085938 187.195312 C 270.488281 188.109375 270.738281 189.085938 270.824219 190.089844 C 270.90625 191.0625 270.824219 192.078125 270.605469 193.039062 C 270.386719 194.007812 270.023438 194.9375 269.519531 195.78125 C 269.019531 196.625 268.40625 197.398438 267.6875 198.046875 C 266.96875 198.691406 266.164062 199.234375 265.296875 199.632812 C 264.425781 200.03125 263.503906 200.296875 262.570312 200.414062 C 262.109375 200.472656 261.648438 200.492188 261.128906 200.480469 L 260.859375 200.464844 L 260.792969 200.457031 L 260.714844 200.457031 L 260.703125 200.453125 L 260.660156 200.453125 L 260.488281 200.433594 C 260.261719 200.414062 260.03125 200.378906 259.804688 200.335938 C 258.90625 200.164062 258.039062 199.871094 257.25 199.445312 C 256.460938 199.019531 255.753906 198.480469 255.152344 197.855469 C 254.550781 197.230469 254.066406 196.519531 253.699219 195.765625 C 253.335938 195.011719 253.097656 194.214844 253 193.414062 C 252.953125 193.015625 252.9375 192.617188 252.957031 192.226562 C 252.972656 191.953125 253 191.664062 253.046875 191.398438 C 253.078125 191.214844 253.234375 191.082031 253.417969 191.074219 C 253.59375 191.070312 253.75 191.183594 253.796875 191.351562 C 253.867188 191.601562 253.941406 191.832031 254.035156 192.066406 C 254.164062 192.382812 254.296875 192.6875 254.460938 192.972656 C 254.777344 193.546875 255.164062 194.058594 255.597656 194.496094 C 256.027344 194.933594 256.515625 195.292969 257.019531 195.582031 C 257.53125 195.863281 258.0625 196.070312 258.597656 196.195312 C 259.132812 196.316406 259.667969 196.375 260.195312 196.339844 C 260.328125 196.328125 260.457031 196.324219 260.585938 196.308594 L 260.683594 196.296875 L 260.710938 196.292969 L 260.714844 196.292969 C 260.726562 196.292969 260.621094 196.292969 260.671875 196.292969 L 260.6875 196.289062 L 260.753906 196.285156 L 261.019531 196.25 C 261.214844 196.199219 261.472656 196.140625 261.710938 196.054688 C 262.183594 195.894531 262.628906 195.671875 263.023438 195.390625 C 263.417969 195.117188 263.773438 194.792969 264.070312 194.425781 C 264.359375 194.058594 264.613281 193.667969 264.789062 193.25 C 264.964844 192.828125 265.089844 192.398438 265.148438 191.960938 C 265.207031 191.515625 265.191406 191.082031 265.136719 190.628906 C 265.085938 190.207031 264.984375 189.777344 264.839844 189.367188 C 264.550781 188.546875 264.074219 187.757812 263.40625 187.042969 C 263.070312 186.695312 262.6875 186.355469 262.242188 186.050781 C 261.972656 185.863281 261.464844 185.578125 261.113281 185.382812 C 260.867188 185.246094 260.71875 184.992188 260.71875 184.710938 L 260.71875 179.785156 L 258.535156 179.785156 C 253.601562 174.851562 250.835938 172.085938 245.902344 167.152344 L 245.902344 158.386719 L 247.226562 158.386719 L 247.226562 98.132812 L 245.90625 98.132812 L 245.90625 90.75 L 133.050781 90.75 L 133.050781 94.175781 L 141.40625 115.089844 L 141.410156 115.09375 L 133.050781 137.875 L 133.050781 332.78125 L 161.0625 332.78125 C 161.0625 346.683594 172.335938 357.957031 186.242188 357.957031 L 188.574219 357.957031 L 188.574219 384.976562 L 28.914062 384.976562 L 28.914062 357.957031 L 31.246094 357.957031 C 45.152344 357.957031 56.425781 346.683594 56.425781 332.78125 L 84.4375 332.78125 L 84.4375 90.75 L 0.871094 90.75 " fill-opacity="1" fill-rule="nonzero"/></g></g></g></g></svg>