<svg xmlns="http://www.w3.org/2000/svg" xmlns:xlink="http://www.w3.org/1999/xlink" width="514" zoomAndPan="magnify" viewBox="0 0 385.5 385.500002" height="514" preserveAspectRatio="xMidYMid meet" version="1.0"><path fill="#f15808" d="M 162.121094 65.867188 C 165.554688 83.492188 180.777344 96.726562 199.273438 96.726562 C 217.757812 96.726562 232.984375 83.492188 236.417969 65.867188 C 234.144531 66.195312 231.324219 66.523438 227.675781 66.875 C 220.535156 67.601562 210.914062 68.214844 199.242188 68.214844 C 187.578125 68.214844 177.953125 67.609375 170.828125 66.875 C 167.191406 66.523438 164.390625 66.195312 162.121094 65.867188 Z M 162.121094 65.867188 " fill-opacity="1" fill-rule="evenodd"/><path fill="#f15808" d="M 237.835938 234.078125 L 237.835938 246.304688 L 223.609375 262.386719 L 223.609375 307.722656 L 234.21875 349.746094 C 240.484375 374.546875 277.683594 365.183594 271.441406 340.347656 L 244.59375 234.074219 L 237.835938 234.074219 Z M 153.804688 234.078125 L 127.117188 340.351562 C 120.90625 365.183594 158.105469 374.496094 164.3125 349.699219 L 174.945312 307.398438 L 174.945312 262.390625 L 160.722656 246.308594 L 160.722656 234.085938 L 153.804688 234.085938 Z M 157.671875 113.851562 C 152.519531 113.851562 147.644531 116.300781 144.566406 120.4375 L 111.65625 164.5625 C 109.40625 167.535156 108.277344 171.199219 108.398438 174.914062 L 109.714844 214.394531 C 110.242188 230.375 127.925781 234.015625 137.089844 226.277344 L 162.671875 226.277344 L 162.671875 209.742188 L 142.367188 209.742188 L 141.328125 179.539062 L 156.253906 159.457031 L 156.253906 201.910156 L 161.429688 201.910156 C 162.140625 196.007812 164.183594 190.445312 167.796875 186.277344 C 171.710938 181.734375 177.261719 178.78125 183.703125 178.78125 L 214.769531 178.78125 C 221.203125 178.78125 226.742188 181.734375 230.679688 186.277344 C 234.289062 190.441406 236.4375 196.007812 237.140625 201.910156 L 242.296875 201.910156 L 242.296875 159.457031 L 257.226562 179.539062 L 256.164062 209.742188 L 235.855469 209.742188 L 235.855469 226.277344 L 261.054688 226.277344 C 270.152344 234.441406 288.511719 230.804688 288.757812 214.394531 L 290.121094 174.914062 C 290.25 171.199219 289.113281 167.539062 286.886719 164.5625 L 253.988281 120.4375 C 250.878906 116.300781 246.03125 113.851562 240.851562 113.851562 Z M 157.671875 113.851562 " fill-opacity="1" fill-rule="nonzero"/><path fill="#f15808" d="M 199.273438 0.078125 C 191.539062 0.078125 185.328125 5.082031 185.328125 11.269531 L 185.328125 22.179688 C 185.328125 25.941406 181.363281 26.117188 180.332031 22.351562 L 178.207031 14.785156 C 168.863281 21.144531 162.933594 31.453125 162.046875 42.742188 C 157.121094 42.613281 153.640625 46.09375 153.640625 50.441406 C 153.640625 54.386719 155.507812 57.234375 158.816406 58.125 C 161.699219 58.875 176.425781 61.25 199.277344 61.25 C 222.128906 61.25 236.851562 58.875 239.734375 58.125 C 243.039062 57.234375 244.90625 54.386719 244.90625 50.441406 C 244.90625 46.097656 241.449219 42.613281 236.5 42.742188 C 235.613281 31.453125 229.679688 21.144531 220.339844 14.785156 L 218.210938 22.351562 C 217.179688 26.117188 213.210938 25.941406 213.210938 22.179688 L 213.210938 11.269531 C 213.207031 5.082031 206.992188 0.078125 199.273438 0.078125 Z M 199.273438 0.078125 " fill-opacity="1" fill-rule="evenodd"/><path fill="#f15808" d="M 183.730469 186.609375 C 175.328125 186.609375 168.53125 195.066406 168.53125 205.542969 L 168.53125 243.351562 L 182.800781 259.433594 L 182.800781 311.210938 L 191.257812 311.210938 L 191.257812 377.703125 L 199.265625 384.921875 L 207.269531 377.703125 L 207.269531 311.210938 L 215.730469 311.210938 L 215.730469 259.4375 L 230 243.355469 L 230 205.542969 C 230 195.066406 223.230469 186.609375 214.792969 186.609375 Z M 183.730469 186.609375 " fill-opacity="1" fill-rule="evenodd"/><path fill="#f15808" d="M 188.328125 384.929688 L 176.890625 355.855469 L 167.472656 361.292969 L 183.730469 384.929688 Z M 188.328125 384.929688 " fill-opacity="1" fill-rule="nonzero"/><path fill="#f15808" d="M 210.226562 384.929688 L 221.667969 355.855469 L 231.066406 361.292969 L 214.824219 384.929688 Z M 210.226562 384.929688 " fill-opacity="1" fill-rule="nonzero"/></svg>